<?xml version="1.0" standalone="no"?>
<!DOCTYPE svg PUBLIC "-//W3C//DTD SVG 20010904//EN"
 "http://www.w3.org/TR/2001/REC-SVG-20010904/DTD/svg10.dtd">
<svg version="1.0" xmlns="http://www.w3.org/2000/svg"
 width="1080.000000pt" height="272.000000pt" viewBox="0 0 1080.000000 272.000000"
 preserveAspectRatio="xMidYMid meet">

<g transform="translate(0.000000,272.000000) scale(0.100000,-0.100000)"
fill="#100039" stroke="none">
<path d="M1195 2709 c-562 -77 -1015 -488 -1155 -1049 -53 -210 -29 -622 42
-723 76 -107 258 -53 258 78 0 20 -9 83 -21 138 -27 132 -23 339 9 462 70 264
224 482 447 632 270 181 599 227 912 128 l83 -26 -27 -40 c-21 -33 -24 -44
-15 -63 9 -21 28 -26 265 -64 140 -23 266 -42 280 -42 16 0 31 8 37 21 10 17
-6 58 -105 267 -64 136 -123 257 -131 270 -23 35 -51 27 -87 -24 -17 -26 -37
-53 -43 -61 -9 -13 -23 -10 -105 20 -137 52 -279 78 -439 82 -74 2 -166 0
-205 -6z m340 -90 c136 -18 229 -47 412 -126 12 -5 28 10 71 65 l17 24 79
-166 c44 -92 77 -169 74 -171 -3 -3 -82 7 -176 22 l-171 27 20 33 c28 44 18
68 -38 93 -63 28 -194 67 -272 80 -91 16 -302 14 -397 -5 -491 -94 -868 -495
-935 -992 -15 -113 -6 -293 21 -402 19 -76 19 -86 5 -107 -16 -25 -57 -32 -83
-15 -36 22 -79 317 -67 456 27 333 163 619 400 843 142 135 293 225 479 287
179 60 380 79 561 54z"/>
<path d="M1282 2155 c-113 -69 -337 -142 -513 -165 -52 -7 -100 -17 -106 -23
-10 -7 -13 -97 -13 -391 l0 -381 29 -82 c81 -233 287 -436 563 -555 114 -49
130 -48 271 20 237 113 398 265 491 463 64 134 66 154 66 550 0 304 -2 360
-15 373 -8 8 -41 18 -72 21 -189 22 -368 75 -522 156 -52 27 -101 49 -110 48
-9 0 -40 -15 -69 -34z m181 -114 c56 -27 139 -61 184 -75 91 -28 266 -66 307
-66 l26 0 0 -338 c0 -305 -2 -344 -19 -393 -66 -193 -203 -354 -399 -468 -77
-45 -183 -91 -209 -91 -32 0 -235 106 -303 158 -146 111 -250 250 -296 397
-24 79 -25 83 -22 404 l3 324 120 22 c143 27 304 79 412 134 43 22 81 40 86
41 4 0 53 -22 110 -49z"/>
<path d="M1280 1894 c-83 -44 -193 -79 -295 -94 -44 -6 -91 -15 -105 -18 l-25
-8 0 -280 0 -280 37 -75 c76 -153 226 -278 414 -344 l52 -18 80 32 c173 70
310 189 380 330 l37 75 0 280 0 280 -25 8 c-14 3 -61 12 -105 18 -101 15 -210
50 -299 95 -39 19 -72 35 -75 34 -3 0 -35 -16 -71 -35z m177 -108 c67 -31 169
-58 301 -82 l23 -5 -3 -227 c-3 -224 -3 -228 -30 -282 -58 -117 -155 -208
-296 -277 l-93 -46 -65 28 c-149 63 -265 164 -325 281 l-34 68 -3 224 c-4 243
-4 242 49 242 48 0 220 50 293 85 39 18 78 32 86 30 8 -2 52 -20 97 -39z"/>
<path d="M2453 1810 c-62 -38 -77 -106 -48 -225 8 -33 18 -107 21 -165 26
-426 -209 -823 -605 -1020 -238 -119 -516 -138 -784 -54 l-78 25 21 33 c11 18
20 45 20 59 0 22 -7 28 -37 37 -46 13 -470 80 -504 80 -27 0 -49 -17 -49 -37
0 -21 230 -506 250 -527 26 -27 52 -13 94 49 20 30 40 55 44 55 5 0 36 -11 70
-25 97 -39 246 -74 379 -87 260 -26 549 37 778 169 347 200 590 532 670 918
23 109 30 311 16 427 -15 122 -45 234 -68 260 -45 50 -132 63 -190 28z m111
-73 c53 -39 85 -398 52 -587 -90 -518 -487 -925 -1010 -1037 -114 -25 -380
-24 -494 0 -93 21 -189 52 -275 91 -68 30 -83 26 -117 -29 -12 -20 -25 -33
-28 -30 -9 9 -160 330 -157 333 6 6 345 -50 345 -57 0 -4 -7 -16 -15 -27 -21
-28 -18 -61 8 -78 34 -23 204 -77 287 -92 102 -18 309 -18 408 1 505 96 888
510 943 1022 15 138 4 270 -36 425 -5 21 -1 32 19 52 28 29 44 32 70 13z"/>
<path d="M3240 1080 l0 -470 60 0 60 0 0 470 0 470 -60 0 -60 0 0 -470z"/>
<path d="M6860 1081 l0 -471 190 0 c212 0 268 8 334 50 125 79 152 263 56 373
-22 24 -53 50 -69 57 l-30 12 42 32 c61 46 87 98 87 172 0 107 -55 184 -160
224 -23 8 -107 14 -242 18 l-208 4 0 -471z m416 343 c52 -25 77 -73 70 -136
-6 -61 -28 -92 -80 -118 -36 -17 -62 -20 -164 -20 l-122 0 0 143 c0 79 3 147
8 151 4 5 61 6 128 4 92 -4 130 -9 160 -24z m24 -399 c46 -27 70 -76 70 -146
0 -70 -27 -115 -90 -146 -39 -20 -59 -23 -172 -23 l-128 0 0 171 0 171 143 -4
c121 -2 147 -6 177 -23z"/>
<path d="M3820 1311 c-44 -14 -84 -38 -110 -66 l-25 -27 -5 44 -5 43 -52 0
c-29 0 -53 -3 -53 -7 0 -5 0 -161 0 -348 l0 -340 55 0 55 0 0 250 0 250 40 44
c62 67 158 84 225 40 42 -27 45 -52 45 -324 l0 -260 60 0 60 0 0 263 c0 144
-5 278 -10 298 -15 54 -50 100 -93 122 -41 21 -147 32 -187 18z"/>
<path d="M4469 1314 c-15 -3 -51 -19 -80 -37 -67 -40 -99 -92 -99 -163 0 -97
67 -153 230 -194 114 -29 149 -47 168 -87 35 -73 -27 -133 -137 -133 -84 0
-129 22 -156 78 -19 39 -21 41 -73 44 -30 2 -55 0 -57 -3 -9 -14 20 -90 47
-123 48 -59 118 -89 218 -94 130 -6 222 35 267 121 23 44 22 124 -2 165 -35
59 -89 85 -276 136 -80 22 -109 48 -109 97 0 62 49 99 130 99 73 0 134 -38
145 -91 6 -28 9 -29 66 -29 55 0 59 2 59 23 -1 63 -63 141 -139 173 -37 16
-155 26 -202 18z"/>
<path d="M5905 1301 c-22 -10 -49 -28 -59 -40 -19 -21 -37 -28 -35 -13 1 4 1
19 0 35 -1 26 -3 27 -56 27 l-55 0 0 -350 0 -350 60 0 60 0 0 254 c0 242 1
255 21 280 31 39 71 56 134 56 l56 0 -3 58 -3 57 -40 3 c-23 1 -57 -6 -80 -17z"/>
<path d="M6326 1304 c-69 -22 -155 -109 -186 -189 -19 -49 -23 -80 -24 -165 0
-94 3 -111 27 -165 34 -73 76 -118 142 -153 45 -24 61 -27 150 -27 92 0 104 2
154 30 29 16 65 45 79 63 l26 34 -34 29 -35 28 -30 -28 c-47 -45 -88 -61 -155
-61 -67 0 -102 14 -141 57 -37 39 -57 82 -61 129 l-3 39 234 3 233 2 -4 88
c-3 61 -11 103 -27 139 -57 130 -200 191 -345 147z m174 -106 c18 -13 41 -34
52 -48 18 -25 40 -115 30 -125 -3 -3 -81 -5 -174 -5 -168 0 -168 0 -168 23 0
59 64 149 120 170 38 14 108 6 140 -15z"/>
<path d="M7824 1302 c-28 -10 -63 -26 -78 -35 -38 -25 -86 -96 -86 -126 0 -25
2 -26 57 -25 48 1 59 5 62 20 9 49 73 87 146 87 96 0 145 -48 145 -143 l0 -50
-103 0 c-118 0 -185 -16 -244 -59 -100 -72 -109 -220 -19 -306 47 -46 99 -65
177 -65 57 0 142 32 168 63 18 22 31 21 31 -2 0 -45 9 -51 76 -51 l64 0 -12
28 c-7 16 -14 125 -17 278 l-6 251 -30 48 c-42 68 -101 97 -203 102 -57 3 -91
-1 -128 -15z m246 -431 l0 -79 -39 -35 c-59 -53 -132 -70 -195 -43 -75 31
-100 116 -50 175 34 40 98 59 202 60 l82 1 0 -79z"/>
<path d="M9203 1306 c-89 -29 -156 -90 -169 -153 l-6 -31 56 -4 c56 -3 57 -3
74 32 23 47 71 73 136 73 97 0 146 -47 146 -141 l0 -50 -122 -3 c-111 -4 -129
-7 -181 -33 -166 -81 -167 -296 -2 -372 87 -41 186 -31 273 28 39 27 42 27 42
9 0 -45 9 -51 76 -51 35 0 64 2 64 4 0 3 -5 17 -12 33 -7 17 -14 124 -17 280
l-6 251 -30 43 c-43 62 -107 92 -203 96 -47 2 -93 -3 -119 -11z m237 -435 c0
-72 -2 -80 -27 -106 -76 -76 -193 -84 -254 -19 -35 38 -34 113 3 150 34 34
103 52 201 53 l77 1 0 -79z"/>
<path d="M9909 1305 c-62 -20 -145 -95 -158 -142 -6 -20 -9 -39 -7 -42 2 -3
29 -4 59 -3 50 3 55 6 70 36 16 35 63 63 112 67 71 5 96 -1 132 -35 33 -30 37
-39 41 -93 l4 -61 -123 -4 c-102 -3 -133 -8 -174 -26 -63 -29 -93 -56 -116
-107 -61 -132 22 -274 171 -292 74 -9 134 5 190 42 l50 34 8 -32 c8 -31 10
-32 71 -35 62 -3 63 -3 56 20 -4 13 -11 136 -14 273 -5 165 -11 260 -20 280
-17 41 -58 83 -106 108 -52 27 -180 33 -246 12z m251 -432 c0 -75 0 -77 -38
-112 -59 -56 -140 -75 -206 -47 -46 19 -66 52 -66 106 1 91 64 127 228 129
l82 1 0 -77z"/>
<path d="M10683 1309 c-18 -5 -48 -24 -67 -42 l-35 -33 -3 35 -3 36 -55 0 -55
0 -3 -347 -2 -348 60 0 60 0 0 246 c0 230 1 249 20 279 27 43 75 65 144 65
l56 0 0 54 c0 40 -4 55 -16 60 -21 8 -62 6 -101 -5z"/>
<path d="M4970 1052 c0 -301 7 -338 69 -395 52 -47 98 -60 187 -55 60 4 83 11
124 36 l50 31 0 -29 c0 -30 0 -30 60 -30 l60 0 0 350 0 350 -60 0 -60 0 0
-256 c0 -246 -1 -257 -22 -286 -42 -59 -162 -87 -227 -53 -56 28 -61 57 -61
339 l0 256 -60 0 -60 0 0 -258z"/>
<path d="M8350 1260 l0 -50 185 0 c102 0 185 -3 185 -6 0 -3 -85 -119 -190
-258 -176 -234 -190 -255 -190 -294 l0 -42 281 0 280 0 -3 48 -3 47 -203 3
-202 2 196 259 c185 244 195 261 192 297 l-3 39 -262 3 -263 2 0 -50z"/>
</g>
</svg>
