<?xml version="1.0" standalone="no"?>
<!DOCTYPE svg PUBLIC "-//W3C//DTD SVG 20010904//EN"
 "http://www.w3.org/TR/2001/REC-SVG-20010904/DTD/svg10.dtd">
<svg version="1.0" xmlns="http://www.w3.org/2000/svg"
 width="500.000000pt" height="500.000000pt" viewBox="0 0 500.000000 500.000000"
 preserveAspectRatio="xMidYMid meet">

<g transform="translate(0.000000,500.000000) scale(0.100000,-0.100000)"
fill="#FFD700" stroke="none">
<path d="M2340 4823 c-432 -32 -883 -206 -1232 -475 -120 -92 -310 -278 -403
-393 -207 -257 -359 -556 -439 -865 -58 -225 -71 -326 -71 -580 0 -241 12
-344 62 -550 30 -125 49 -166 99 -210 57 -49 98 -63 176 -58 118 9 204 81 229
193 11 48 9 65 -14 162 -47 196 -52 239 -52 468 0 190 3 236 23 333 148 733
707 1296 1437 1448 165 34 403 43 571 20 186 -24 464 -101 464 -127 0 -5 -16
-33 -35 -62 -52 -78 -45 -128 23 -147 56 -16 838 -140 882 -140 44 0 70 26 70
70 0 37 -395 870 -426 898 -50 44 -81 26 -164 -99 -34 -49 -62 -89 -63 -89 -1
0 -53 20 -115 45 -324 127 -686 183 -1022 158z m366 -154 c233 -22 470 -84
687 -179 135 -59 147 -57 207 36 24 35 45 64 49 64 4 0 45 -80 91 -177 46 -98
107 -229 137 -292 l53 -113 -32 4 c-18 2 -156 24 -305 48 l-273 44 17 25 c43
65 52 91 41 123 -9 25 -25 37 -83 63 -373 170 -865 211 -1270 105 -247 -65
-506 -190 -697 -337 -310 -238 -539 -546 -672 -906 -130 -350 -152 -774 -60
-1145 23 -88 24 -107 14 -133 -24 -58 -108 -77 -155 -36 -50 43 -103 315 -112
567 -22 627 212 1197 673 1640 453 436 1081 659 1690 599z"/>
<path d="M2435 3904 c-252 -159 -680 -298 -1010 -329 -94 -9 -121 -20 -134
-57 -7 -21 -11 -230 -11 -624 0 -641 1 -651 56 -804 75 -209 193 -389 370
-561 192 -187 411 -322 698 -430 l88 -33 82 28 c107 37 300 130 406 195 363
226 617 554 710 917 19 73 20 112 20 686 0 525 -2 613 -15 638 -17 34 -23 35
-160 51 -320 35 -689 154 -946 304 -42 25 -84 45 -95 45 -10 0 -37 -12 -59
-26z m148 -188 c242 -131 547 -228 862 -275 l110 -17 0 -584 0 -585 -28 -80
c-144 -410 -478 -732 -952 -920 -87 -34 -103 -31 -295 61 -382 184 -661 461
-789 785 -61 154 -61 154 -59 765 l3 558 140 22 c77 12 179 31 226 42 200 48
470 150 614 232 39 22 74 40 78 40 5 0 46 -20 90 -44z"/>
<path d="M2364 3420 c-172 -89 -421 -161 -614 -177 -64 -5 -79 -10 -102 -34
l-28 -27 0 -409 c0 -457 2 -476 69 -618 56 -119 112 -199 211 -296 133 -131
321 -246 513 -314 l79 -28 66 23 c184 63 371 174 501 296 103 96 169 185 225
299 75 153 76 158 76 633 0 386 -1 422 -18 442 -14 18 -36 24 -132 35 -219 27
-421 89 -612 186 -54 27 -103 49 -110 48 -7 -1 -63 -27 -124 -59z m204 -144
c149 -75 330 -131 530 -165 l107 -18 0 -389 0 -389 -46 -95 c-102 -212 -260
-360 -513 -481 -133 -64 -147 -66 -231 -34 -281 105 -510 312 -611 552 l-29
68 0 385 0 385 89 12 c178 26 401 94 541 166 39 20 76 36 83 37 7 0 43 -15 80
-34z"/>
<path d="M4420 3304 c-61 -22 -105 -56 -135 -108 -39 -67 -42 -125 -12 -252
100 -425 56 -840 -129 -1220 -255 -523 -746 -897 -1322 -1006 -163 -31 -463
-31 -632 0 -117 21 -370 97 -370 110 0 4 16 31 35 59 40 59 46 110 17 136 -22
20 -23 20 -527 102 -277 44 -404 61 -421 55 -25 -10 -44 -39 -44 -68 0 -18
384 -841 414 -887 20 -31 62 -40 92 -20 13 8 51 56 84 105 33 50 64 90 69 90
5 0 34 -11 65 -25 301 -133 723 -202 1066 -175 553 44 1045 265 1443 649 393
380 636 873 698 1421 33 290 -19 772 -99 923 -56 105 -176 151 -292 111z m140
-161 c25 -23 35 -46 55 -128 43 -177 58 -335 52 -564 -7 -279 -44 -473 -137
-713 -233 -603 -732 -1079 -1344 -1283 -523 -175 -1069 -145 -1589 87 -79 36
-89 38 -114 26 -16 -7 -49 -43 -74 -80 l-46 -67 -137 290 c-76 160 -135 293
-132 296 5 5 587 -85 594 -92 2 -1 -11 -24 -27 -51 -37 -57 -39 -93 -8 -121
12 -12 74 -41 137 -66 1176 -458 2473 298 2666 1553 19 127 22 409 5 530 -7
47 -24 138 -38 202 -30 135 -24 170 31 194 47 20 73 17 106 -13z"/>
</g>
</svg>
